FFmpeg Befehl: C:\Users\ThiloBrosinsky\AppData\Local\Microsoft\WinGet\Packages\Gyan.FFmpeg_Microsoft.Winget.Source_8wekyb3d8bbwe\ffmpeg-8.0.1-full_build\bin\ffmpeg.exe -y -f gdigrab -framerate 30 -i title="Peakboard Runtime" -t 60 -c:v libx264 -preset fast -pix_fmt yuv420p "C:\Source\Blog\assets\2026-03-04-17-16-54\bg_clip.mp4"
Window Title: Peakboard Runtime
Start: 2026-03-04T17:17:10.1721521+01:00

Exit Code: 0
Exited normally: True

STDERR:
ffmpeg version 8.0.1-full_build-www.gyan.dev Copyright (c) 2000-2025 the FFmpeg developers
  built with gcc 15.2.0 (Rev8, Built by MSYS2 project)
  configuration: --enable-gpl --enable-version3 --enable-static --disable-w32threads --disable-autodetect --enable-fontconfig --enable-iconv --enable-gnutls --enable-lcms2 --enable-libxml2 --enable-gmp --enable-bzlib --enable-lzma --enable-libsnappy --enable-zlib --enable-librist --enable-libsrt --enable-libssh --enable-libzmq --enable-avisynth --enable-libbluray --enable-libcaca --enable-libdvdnav --enable-libdvdread --enable-sdl2 --enable-libaribb24 --enable-libaribcaption --enable-libdav1d --enable-libdavs2 --enable-libopenjpeg --enable-libquirc --enable-libuavs3d --enable-libxevd --enable-libzvbi --enable-liboapv --enable-libqrencode --enable-librav1e --enable-libsvtav1 --enable-libvvenc --enable-libwebp --enable-libx264 --enable-libx265 --enable-libxavs2 --enable-libxeve --enable-libxvid --enable-libaom --enable-libjxl --enable-libvpx --enable-mediafoundation --enable-libass --enable-frei0r --enable-libfreetype --enable-libfribidi --enable-libharfbuzz --enable-liblensfun --enable-libvidstab --enable-libvmaf --enable-libzimg --enable-amf --enable-cuda-llvm --enable-cuvid --enable-dxva2 --enable-d3d11va --enable-d3d12va --enable-ffnvcodec --enable-libvpl --enable-nvdec --enable-nvenc --enable-vaapi --enable-libshaderc --enable-vulkan --enable-libplacebo --enable-opencl --enable-libcdio --enable-openal --enable-libgme --enable-libmodplug --enable-libopenmpt --enable-libopencore-amrwb --enable-libmp3lame --enable-libshine --enable-libtheora --enable-libtwolame --enable-libvo-amrwbenc --enable-libcodec2 --enable-libilbc --enable-libgsm --enable-liblc3 --enable-libopencore-amrnb --enable-libopus --enable-libspeex --enable-libvorbis --enable-ladspa --enable-libbs2b --enable-libflite --enable-libmysofa --enable-librubberband --enable-libsoxr --enable-chromaprint --enable-whisper
  libavutil      60.  8.100 / 60.  8.100
  libavcodec     62. 11.100 / 62. 11.100
  libavformat    62.  3.100 / 62.  3.100
  libavdevice    62.  1.100 / 62.  1.100
  libavfilter    11.  4.100 / 11.  4.100
  libswscale      9.  1.100 /  9.  1.100
  libswresample   6.  1.100 /  6.  1.100
[gdigrab @ 000002591ef65a40] Found window Peakboard Runtime, capturing 1920x1080x32 at (0,0)
[gdigrab @ 000002591ef65a40] Stream #0: not enough frames to estimate rate; consider increasing probesize
Input #0, gdigrab, from 'title=Peakboard Runtime':
  Duration: N/A, start: 1772641030.264106, bitrate: 1990668 kb/s
  Stream #0:0: Video: bmp, bgra, 1920x1080, 1990668 kb/s, 30 fps, 1000k tbr, 1000k tbn, start 1772641030.264106
Stream mapping:
  Stream #0:0 -> #0:0 (bmp (native) -> h264 (libx264))
Press [q] to stop, [?] for help
[libx264 @ 000002591ef6c080] using cpu capabilities: MMX2 SSE2Fast SSSE3 SSE4.2 AVX FMA3 BMI2 AVX2 AVX512
[libx264 @ 000002591ef6c080] profile High, level 4.0, 4:2:0, 8-bit
[libx264 @ 000002591ef6c080] 264 - core 165 r3223 0480cb0 - H.264/MPEG-4 AVC codec - Copyleft 2003-2025 - http://www.videolan.org/x264.html - options: cabac=1 ref=2 deblock=1:0:0 analyse=0x3:0x113 me=hex subme=6 psy=1 psy_rd=1.00:0.00 mixed_ref=1 me_range=16 chroma_me=1 trellis=1 8x8dct=1 cqm=0 deadzone=21,11 fast_pskip=1 chroma_qp_offset=-2 threads=24 lookahead_threads=4 sliced_threads=0 nr=0 decimate=1 interlaced=0 bluray_compat=0 constrained_intra=0 bframes=3 b_pyramid=2 b_adapt=1 b_bias=0 direct=1 weightb=1 open_gop=0 weightp=1 keyint=250 keyint_min=25 scenecut=40 intra_refresh=0 rc_lookahead=30 rc=crf mbtree=1 crf=23.0 qcomp=0.60 qpmin=0 qpmax=69 qpstep=4 ip_ratio=1.40 aq=1:1.00
Output #0, mp4, to 'C:\Source\Blog\assets\2026-03-04-17-16-54\bg_clip.mp4':
  Metadata:
    encoder         : Lavf62.3.100
  Stream #0:0: Video: h264 (avc1 / 0x31637661), yuv420p(tv, progressive), 1920x1080, q=2-31, 30 fps, 15360 tbn
    Metadata:
      encoder         : Lavc62.11.100 libx264
    Side data:
      cpb: bitrate max/min/avg: 0/0/0 buffer size: 0 vbv_delay: N/A
frame=    0 fps=0.0 q=0.0 size=       0KiB time=N/A bitrate=N/A speed=N/A elapsed=0:00:00.50    frame=    0 fps=0.0 q=0.0 size=       0KiB time=N/A bitrate=N/A speed=N/A elapsed=0:00:01.01    frame=    0 fps=0.0 q=0.0 size=       0KiB time=N/A bitrate=N/A speed=N/A elapsed=0:00:01.54    frame=    3 fps=1.5 q=29.0 size=       0KiB time=00:00:00.00 bitrate=N/A dup=0 drop=1 speed=   0x elapsed=0:00:02.06    frame=   19 fps=7.3 q=29.0 size=       0KiB time=00:00:00.53 bitrate=   0.7kbits/s dup=0 drop=1 speed=0.206x elapsed=0:00:02.59    frame=   34 fps= 11 q=29.0 size=       0KiB time=00:00:01.03 bitrate=   0.4kbits/s dup=0 drop=1 speed=0.334x elapsed=0:00:03.09    frame=   48 fps= 13 q=29.0 size=       0KiB time=00:00:01.50 bitrate=   0.3kbits/s dup=0 drop=3 speed=0.414x elapsed=0:00:03.62    frame=   63 fps= 15 q=29.0 size=       0KiB time=00:00:02.03 bitrate=   0.2kbits/s dup=0 drop=3 speed=0.492x elapsed=0:00:04.13    frame=   79 fps= 17 q=29.0 size=       0KiB time=00:00:02.56 bitrate=   0.1kbits/s dup=0 drop=3 speed=0.552x elapsed=0:00:04.65    frame=   94 fps= 18 q=29.0 size=       0KiB time=00:00:03.06 bitrate=   0.1kbits/s dup=0 drop=3 speed=0.593x elapsed=0:00:05.17    frame=  110 fps= 19 q=29.0 size=       0KiB time=00:00:03.66 bitrate=   0.1kbits/s dup=0 drop=3 speed=0.645x elapsed=0:00:05.68    frame=  125 fps= 20 q=29.0 size=       0KiB time=00:00:04.16 bitrate=   0.1kbits/s dup=0 drop=3 speed=0.673x elapsed=0:00:06.19    frame=  140 fps= 21 q=29.0 size=       0KiB time=00:00:04.66 bitrate=   0.1kbits/s dup=0 drop=3 speed=0.696x elapsed=0:00:06.70    frame=  156 fps= 22 q=29.0 size=       0KiB time=00:00:05.20 bitrate=   0.1kbits/s dup=0 drop=3 speed=0.72x elapsed=0:00:07.22    frame=  172 fps= 22 q=29.0 size=       0KiB time=00:00:05.73 bitrate=   0.1kbits/s dup=0 drop=3 speed=0.74x elapsed=0:00:07.74    frame=  185 fps= 22 q=29.0 size=       0KiB time=00:00:06.16 bitrate=   0.1kbits/s dup=0 drop=3 speed=0.747x elapsed=0:00:08.25    frame=  201 fps= 23 q=29.0 size=       0KiB time=00:00:06.70 bitrate=   0.1kbits/s dup=0 drop=5 speed=0.763x elapsed=0:00:08.78    frame=  216 fps= 23 q=29.0 size=       0KiB time=00:00:07.20 bitrate=   0.1kbits/s dup=0 drop=5 speed=0.774x elapsed=0:00:09.29    frame=  232 fps= 24 q=29.0 size=       0KiB time=00:00:07.73 bitrate=   0.0kbits/s dup=0 drop=5 speed=0.788x elapsed=0:00:09.81    frame=  247 fps= 24 q=29.0 size=       0KiB time=00:00:08.30 bitrate=   0.0kbits/s dup=0 drop=5 speed=0.803x elapsed=0:00:10.33    frame=  262 fps= 24 q=29.0 size=     256KiB time=00:00:08.80 bitrate= 238.4kbits/s dup=0 drop=5 speed=0.81x elapsed=0:00:10.86    frame=  278 fps= 24 q=29.0 size=     256KiB time=00:00:09.30 bitrate= 225.5kbits/s dup=0 drop=6 speed=0.818x elapsed=0:00:11.37    frame=  293 fps= 25 q=27.0 size=     256KiB time=00:00:09.83 bitrate= 213.3kbits/s dup=0 drop=6 speed=0.828x elapsed=0:00:11.87    frame=  308 fps= 25 q=29.0 size=     256KiB time=00:00:10.33 bitrate= 203.0kbits/s dup=0 drop=6 speed=0.833x elapsed=0:00:12.39    frame=  324 fps= 25 q=29.0 size=     256KiB time=00:00:10.90 bitrate= 192.4kbits/s dup=0 drop=6 speed=0.844x elapsed=0:00:12.91    frame=  339 fps= 25 q=29.0 size=     256KiB time=00:00:11.40 bitrate= 184.0kbits/s dup=0 drop=6 speed=0.849x elapsed=0:00:13.43    frame=  354 fps= 25 q=29.0 size=     256KiB time=00:00:11.90 bitrate= 176.3kbits/s dup=0 drop=6 speed=0.853x elapsed=0:00:13.94    frame=  370 fps= 26 q=29.0 size=     256KiB time=00:00:12.43 bitrate= 168.7kbits/s dup=0 drop=6 speed=0.86x elapsed=0:00:14.45    frame=  386 fps= 26 q=29.0 size=     256KiB time=00:00:12.96 bitrate= 161.8kbits/s dup=0 drop=6 speed=0.866x elapsed=0:00:14.97    frame=  401 fps= 26 q=29.0 size=     256KiB time=00:00:13.46 bitrate= 155.8kbits/s dup=0 drop=6 speed=0.869x elapsed=0:00:15.49    frame=  417 fps= 26 q=29.0 size=     256KiB time=00:00:14.00 bitrate= 149.8kbits/s dup=0 drop=6 speed=0.875x elapsed=0:00:16.00    frame=  432 fps= 26 q=29.0 size=     256KiB time=00:00:14.50 bitrate= 144.7kbits/s dup=0 drop=6 speed=0.878x elapsed=0:00:16.52    frame=  447 fps= 26 q=29.0 size=     256KiB time=00:00:15.00 bitrate= 139.8kbits/s dup=0 drop=6 speed=0.88x elapsed=0:00:17.03    frame=  463 fps= 26 q=29.0 size=     256KiB time=00:00:15.53 bitrate= 135.0kbits/s dup=0 drop=6 speed=0.885x elapsed=0:00:17.55    frame=  479 fps= 26 q=29.0 size=     256KiB time=00:00:16.06 bitrate= 130.6kbits/s dup=0 drop=6 speed=0.889x elapsed=0:00:18.07    frame=  493 fps= 27 q=29.0 size=     256KiB time=00:00:16.53 bitrate= 126.9kbits/s dup=0 drop=7 speed=0.889x elapsed=0:00:18.59    frame=  506 fps= 26 q=29.0 size=     512KiB time=00:00:16.96 bitrate= 247.2kbits/s dup=0 drop=9 speed=0.888x elapsed=0:00:19.10    frame=  522 fps= 27 q=29.0 size=     512KiB time=00:00:17.50 bitrate= 239.7kbits/s dup=0 drop=9 speed=0.892x elapsed=0:00:19.62    frame=  537 fps= 27 q=27.0 size=     512KiB time=00:00:18.00 bitrate= 233.0kbits/s dup=0 drop=9 speed=0.894x elapsed=0:00:20.13    frame=  553 fps= 27 q=29.0 size=     512KiB time=00:00:18.60 bitrate= 225.5kbits/s dup=0 drop=9 speed=0.901x elapsed=0:00:20.64    frame=  568 fps= 27 q=29.0 size=     512KiB time=00:00:19.13 bitrate= 219.2kbits/s dup=0 drop=9 speed=0.904x elapsed=0:00:21.16    frame=  584 fps= 27 q=29.0 size=     512KiB time=00:00:19.66 bitrate= 213.3kbits/s dup=0 drop=9 speed=0.907x elapsed=0:00:21.67    frame=  599 fps= 27 q=29.0 size=     512KiB time=00:00:20.16 bitrate= 208.0kbits/s dup=0 drop=9 speed=0.909x elapsed=0:00:22.19    frame=  615 fps= 27 q=29.0 size=     512KiB time=00:00:20.70 bitrate= 202.6kbits/s dup=0 drop=9 speed=0.912x elapsed=0:00:22.70    frame=  630 fps= 27 q=29.0 size=     512KiB time=00:00:21.20 bitrate= 197.9kbits/s dup=0 drop=9 speed=0.913x elapsed=0:00:23.22    frame=  645 fps= 27 q=29.0 size=     512KiB time=00:00:21.70 bitrate= 193.3kbits/s dup=0 drop=9 speed=0.914x elapsed=0:00:23.73    frame=  661 fps= 27 q=29.0 size=     512KiB time=00:00:22.20 bitrate= 188.9kbits/s dup=0 drop=9 speed=0.915x elapsed=0:00:24.25    frame=  677 fps= 27 q=29.0 size=     512KiB time=00:00:22.76 bitrate= 184.2kbits/s dup=0 drop=9 speed=0.919x elapsed=0:00:24.77    frame=  692 fps= 27 q=29.0 size=     512KiB time=00:00:23.26 bitrate= 180.3kbits/s dup=0 drop=9 speed=0.92x elapsed=0:00:25.29    frame=  708 fps= 27 q=29.0 size=     512KiB time=00:00:23.80 bitrate= 176.2kbits/s dup=0 drop=9 speed=0.922x elapsed=0:00:25.80    frame=  723 fps= 27 q=29.0 size=     512KiB time=00:00:24.30 bitrate= 172.6kbits/s dup=0 drop=9 speed=0.923x elapsed=0:00:26.32    frame=  738 fps= 28 q=29.0 size=     512KiB time=00:00:24.80 bitrate= 169.1kbits/s dup=0 drop=9 speed=0.924x elapsed=0:00:26.83    frame=  754 fps= 28 q=29.0 size=     512KiB time=00:00:25.33 bitrate= 165.6kbits/s dup=0 drop=9 speed=0.926x elapsed=0:00:27.35    frame=  769 fps= 28 q=29.0 size=     512KiB time=00:00:25.83 bitrate= 162.4kbits/s dup=0 drop=9 speed=0.927x elapsed=0:00:27.86    frame=  785 fps= 28 q=29.0 size=     512KiB time=00:00:26.36 bitrate= 159.1kbits/s dup=0 drop=9 speed=0.929x elapsed=0:00:28.38    frame=  800 fps= 28 q=29.0 size=     512KiB time=00:00:26.86 bitrate= 156.1kbits/s dup=0 drop=9 speed=0.93x elapsed=0:00:28.90    frame=  816 fps= 28 q=29.0 size=     512KiB time=00:00:27.40 bitrate= 153.1kbits/s dup=0 drop=9 speed=0.931x elapsed=0:00:29.41    frame=  831 fps= 28 q=29.0 size=     768KiB time=00:00:27.90 bitrate= 225.5kbits/s dup=0 drop=9 speed=0.932x elapsed=0:00:29.93    frame=  847 fps= 28 q=29.0 size=     768KiB time=00:00:28.43 bitrate= 221.3kbits/s dup=0 drop=9 speed=0.934x elapsed=0:00:30.44    frame=  862 fps= 28 q=29.0 size=     768KiB time=00:00:28.93 bitrate= 217.5kbits/s dup=0 drop=9 speed=0.935x elapsed=0:00:30.95    frame=  877 fps= 28 q=29.0 size=     768KiB time=00:00:29.43 bitrate= 213.8kbits/s dup=0 drop=9 speed=0.935x elapsed=0:00:31.47    frame=  893 fps= 28 q=29.0 size=     768KiB time=00:00:29.96 bitrate= 210.0kbits/s dup=0 drop=9 speed=0.937x elapsed=0:00:31.98    frame=  908 fps= 28 q=29.0 size=     768KiB time=00:00:30.46 bitrate= 206.5kbits/s dup=0 drop=9 speed=0.937x elapsed=0:00:32.50    frame=  924 fps= 28 q=29.0 size=     768KiB time=00:00:31.00 bitrate= 203.0kbits/s dup=0 drop=9 speed=0.939x elapsed=0:00:33.01    frame=  939 fps= 28 q=29.0 size=     768KiB time=00:00:31.50 bitrate= 199.7kbits/s dup=0 drop=9 speed=0.939x elapsed=0:00:33.53    frame=  955 fps= 28 q=29.0 size=     768KiB time=00:00:32.03 bitrate= 196.4kbits/s dup=0 drop=9 speed=0.94x elapsed=0:00:34.06    frame=  971 fps= 28 q=29.0 size=     768KiB time=00:00:32.56 bitrate= 193.2kbits/s dup=0 drop=9 speed=0.942x elapsed=0:00:34.57    frame=  986 fps= 28 q=29.0 size=     768KiB time=00:00:33.06 bitrate= 190.3kbits/s dup=0 drop=9 speed=0.942x elapsed=0:00:35.09    frame= 1001 fps= 28 q=29.0 size=     768KiB time=00:00:33.56 bitrate= 187.4kbits/s dup=0 drop=9 speed=0.943x elapsed=0:00:35.60    frame= 1017 fps= 28 q=29.0 size=     768KiB time=00:00:34.10 bitrate= 184.5kbits/s dup=0 drop=9 speed=0.944x elapsed=0:00:36.11    frame= 1032 fps= 28 q=29.0 size=     768KiB time=00:00:34.60 bitrate= 181.8kbits/s dup=0 drop=9 speed=0.945x elapsed=0:00:36.63    frame= 1048 fps= 28 q=29.0 size=     768KiB time=00:00:35.13 bitrate= 179.1kbits/s dup=0 drop=9 speed=0.946x elapsed=0:00:37.14    frame= 1063 fps= 28 q=29.0 size=     768KiB time=00:00:35.63 bitrate= 176.6kbits/s dup=0 drop=9 speed=0.946x elapsed=0:00:37.66    frame= 1079 fps= 28 q=29.0 size=     768KiB time=00:00:36.16 bitrate= 174.0kbits/s dup=0 drop=9 speed=0.947x elapsed=0:00:38.17    frame= 1094 fps= 28 q=29.0 size=     768KiB time=00:00:36.66 bitrate= 171.6kbits/s dup=0 drop=9 speed=0.948x elapsed=0:00:38.68    frame= 1108 fps= 28 q=29.0 size=     768KiB time=00:00:37.13 bitrate= 169.4kbits/s dup=0 drop=10 speed=0.947x elapsed=0:00:39.21    frame= 1123 fps= 28 q=29.0 size=     768KiB time=00:00:37.63 bitrate= 167.2kbits/s dup=0 drop=11 speed=0.947x elapsed=0:00:39.73    frame= 1139 fps= 28 q=29.0 size=     768KiB time=00:00:38.16 bitrate= 164.9kbits/s dup=0 drop=11 speed=0.948x elapsed=0:00:40.24    frame= 1154 fps= 28 q=29.0 size=     768KiB time=00:00:38.66 bitrate= 162.7kbits/s dup=0 drop=11 speed=0.949x elapsed=0:00:40.76    frame= 1170 fps= 28 q=29.0 size=     768KiB time=00:00:39.26 bitrate= 160.2kbits/s dup=0 drop=11 speed=0.951x elapsed=0:00:41.27    frame= 1185 fps= 28 q=29.0 size=     768KiB time=00:00:39.76 bitrate= 158.2kbits/s dup=0 drop=11 speed=0.951x elapsed=0:00:41.79    frame= 1200 fps= 28 q=29.0 size=     768KiB time=00:00:40.26 bitrate= 156.3kbits/s dup=0 drop=11 speed=0.952x elapsed=0:00:42.29    frame= 1216 fps= 28 q=29.0 size=    1024KiB time=00:00:40.80 bitrate= 205.6kbits/s dup=0 drop=11 speed=0.953x elapsed=0:00:42.81    frame= 1231 fps= 28 q=29.0 size=    1024KiB time=00:00:41.30 bitrate= 203.1kbits/s dup=0 drop=11 speed=0.953x elapsed=0:00:43.33    frame= 1247 fps= 28 q=29.0 size=    1024KiB time=00:00:41.83 bitrate= 200.5kbits/s dup=0 drop=11 speed=0.954x elapsed=0:00:43.85    frame= 1262 fps= 28 q=29.0 size=    1024KiB time=00:00:42.33 bitrate= 198.2kbits/s dup=0 drop=11 speed=0.954x elapsed=0:00:44.37    frame= 1278 fps= 28 q=29.0 size=    1024KiB time=00:00:42.86 bitrate= 195.7kbits/s dup=0 drop=11 speed=0.955x elapsed=0:00:44.88    frame= 1293 fps= 28 q=29.0 size=    1024KiB time=00:00:43.36 bitrate= 193.4kbits/s dup=0 drop=11 speed=0.955x elapsed=0:00:45.39    frame= 1309 fps= 29 q=29.0 size=    1024KiB time=00:00:43.90 bitrate= 191.1kbits/s dup=0 drop=11 speed=0.956x elapsed=0:00:45.91    frame= 1324 fps= 29 q=29.0 size=    1024KiB time=00:00:44.40 bitrate= 188.9kbits/s dup=0 drop=11 speed=0.956x elapsed=0:00:46.42    frame= 1340 fps= 29 q=29.0 size=    1024KiB time=00:00:44.93 bitrate= 186.7kbits/s dup=0 drop=11 speed=0.957x elapsed=0:00:46.94    frame= 1355 fps= 29 q=29.0 size=    1024KiB time=00:00:45.43 bitrate= 184.6kbits/s dup=0 drop=11 speed=0.957x elapsed=0:00:47.45    frame= 1370 fps= 29 q=29.0 size=    1024KiB time=00:00:45.93 bitrate= 182.6kbits/s dup=0 drop=11 speed=0.957x elapsed=0:00:47.97    frame= 1386 fps= 29 q=29.0 size=    1024KiB time=00:00:46.46 bitrate= 180.5kbits/s dup=0 drop=11 speed=0.958x elapsed=0:00:48.48    frame= 1401 fps= 29 q=29.0 size=    1024KiB time=00:00:46.96 bitrate= 178.6kbits/s dup=0 drop=12 speed=0.958x elapsed=0:00:49.01    frame= 1416 fps= 29 q=29.0 size=    1024KiB time=00:00:47.46 bitrate= 176.7kbits/s dup=0 drop=12 speed=0.958x elapsed=0:00:49.52    frame= 1432 fps= 29 q=29.0 size=    1024KiB time=00:00:48.00 bitrate= 174.8kbits/s dup=0 drop=12 speed=0.959x elapsed=0:00:50.04    frame= 1447 fps= 29 q=29.0 size=    1024KiB time=00:00:48.50 bitrate= 173.0kbits/s dup=0 drop=12 speed=0.959x elapsed=0:00:50.55    frame= 1462 fps= 29 q=29.0 size=    1024KiB time=00:00:49.03 bitrate= 171.1kbits/s dup=0 drop=12 speed=0.96x elapsed=0:00:51.06    frame= 1478 fps= 29 q=26.0 size=    1024KiB time=00:00:49.56 bitrate= 169.2kbits/s dup=0 drop=12 speed=0.961x elapsed=0:00:51.58    frame= 1493 fps= 29 q=29.0 size=    1024KiB time=00:00:50.06 bitrate= 167.6kbits/s dup=0 drop=12 speed=0.961x elapsed=0:00:52.10    frame= 1509 fps= 29 q=29.0 size=    1280KiB time=00:00:50.60 bitrate= 207.2kbits/s dup=0 drop=12 speed=0.962x elapsed=0:00:52.61    frame= 1524 fps= 29 q=29.0 size=    1280KiB time=00:00:51.10 bitrate= 205.2kbits/s dup=0 drop=12 speed=0.962x elapsed=0:00:53.13    frame= 1540 fps= 29 q=29.0 size=    1280KiB time=00:00:51.63 bitrate= 203.1kbits/s dup=0 drop=12 speed=0.962x elapsed=0:00:53.65    frame= 1555 fps= 29 q=29.0 size=    1280KiB time=00:00:52.13 bitrate= 201.1kbits/s dup=0 drop=12 speed=0.962x elapsed=0:00:54.16    frame= 1571 fps= 29 q=29.0 size=    1280KiB time=00:00:52.66 bitrate= 199.1kbits/s dup=0 drop=12 speed=0.963x elapsed=0:00:54.68    frame= 1586 fps= 29 q=29.0 size=    1280KiB time=00:00:53.16 bitrate= 197.2kbits/s dup=0 drop=12 speed=0.963x elapsed=0:00:55.19    frame= 1602 fps= 29 q=29.0 size=    1280KiB time=00:00:53.70 bitrate= 195.3kbits/s dup=0 drop=12 speed=0.964x elapsed=0:00:55.71    frame= 1617 fps= 29 q=29.0 size=    1280KiB time=00:00:54.20 bitrate= 193.5kbits/s dup=0 drop=12 speed=0.964x elapsed=0:00:56.23    frame= 1633 fps= 29 q=29.0 size=    1280KiB time=00:00:54.73 bitrate= 191.6kbits/s dup=0 drop=12 speed=0.965x elapsed=0:00:56.74    frame= 1648 fps= 29 q=29.0 size=    1280KiB time=00:00:55.23 bitrate= 189.9kbits/s dup=0 drop=12 speed=0.965x elapsed=0:00:57.25    frame= 1663 fps= 29 q=29.0 size=    1280KiB time=00:00:55.73 bitrate= 188.1kbits/s dup=0 drop=12 speed=0.965x elapsed=0:00:57.77    frame= 1679 fps= 29 q=29.0 size=    1280KiB time=00:00:56.26 bitrate= 186.4kbits/s dup=0 drop=12 speed=0.965x elapsed=0:00:58.28    frame= 1694 fps= 29 q=29.0 size=    1280KiB time=00:00:56.76 bitrate= 184.7kbits/s dup=0 drop=12 speed=0.965x elapsed=0:00:58.80    frame= 1710 fps= 29 q=29.0 size=    1280KiB time=00:00:57.30 bitrate= 183.0kbits/s dup=0 drop=12 speed=0.966x elapsed=0:00:59.31    frame= 1725 fps= 29 q=29.0 size=    1280KiB time=00:00:57.80 bitrate= 181.4kbits/s dup=0 drop=12 speed=0.966x elapsed=0:00:59.82    [out#0/mp4 @ 000002591ef69f00] video:1507KiB audio:0KiB subtitle:0KiB other streams:0KiB global headers:0KiB muxing overhead: 1.432800%
frame= 1788 fps= 30 q=-1.0 Lsize=    1529KiB time=00:00:59.90 bitrate= 209.1kbits/s dup=0 drop=12 speed=0.997x elapsed=0:01:00.09    
[libx264 @ 000002591ef6c080] frame I:8     Avg QP:14.45  size: 71444
[libx264 @ 000002591ef6c080] frame P:502   Avg QP:17.13  size:  1596
[libx264 @ 000002591ef6c080] frame B:1278  Avg QP:16.80  size:   133
[libx264 @ 000002591ef6c080] consecutive B-frames:  2.7%  3.7%  6.5% 87.0%
[libx264 @ 000002591ef6c080] mb I  I16..4: 60.0% 26.2% 13.8%
[libx264 @ 000002591ef6c080] mb P  I16..4:  1.3%  0.6%  0.3%  P16..4:  0.5%  0.0%  0.0%  0.0%  0.0%    skip:97.2%
[libx264 @ 000002591ef6c080] mb B  I16..4:  0.0%  0.0%  0.0%  B16..8:  0.3%  0.0%  0.0%  direct: 0.1%  skip:99.6%  L0:40.5% L1:59.2% BI: 0.2%
[libx264 @ 000002591ef6c080] 8x8 transform intra:27.2% inter:25.3%
[libx264 @ 000002591ef6c080] coded y,uvDC,uvAC intra: 8.5% 14.9% 13.4% inter: 0.0% 0.1% 0.0%
[libx264 @ 000002591ef6c080] i16 v,h,dc,p: 64% 34%  1%  0%
[libx264 @ 000002591ef6c080] i8 v,h,dc,ddl,ddr,vr,hd,vl,hu: 48% 10% 42%  0%  0%  0%  0%  0%  0%
[libx264 @ 000002591ef6c080] i4 v,h,dc,ddl,ddr,vr,hd,vl,hu: 39% 20% 21%  3%  4%  5%  3%  3%  3%
[libx264 @ 000002591ef6c080] i8c dc,h,v,p: 62% 28%  9%  1%
[libx264 @ 000002591ef6c080] Weighted P-Frames: Y:0.0% UV:0.0%
[libx264 @ 000002591ef6c080] ref P L0: 42.8% 57.2%
[libx264 @ 000002591ef6c080] ref B L0: 84.6% 15.4%
[libx264 @ 000002591ef6c080] ref B L1: 97.6%  2.4%
[libx264 @ 000002591ef6c080] kb/s:205.68

